name ./resultDataOpenSim/trcMotMarkerGrf/sub06/grf-05-07.mot
datacolumns 19
datarows 15
range 1.59600000 1.65200000
endheader

                time	     ground_force_vx	     ground_force_vy	     ground_force_vz	     ground_force_px	     ground_force_py	     ground_force_pz	   l_ground_force_vx	   l_ground_force_vy	   l_ground_force_vz	   l_ground_force_px	   l_ground_force_py	   l_ground_force_pz	     ground_torque_x	     ground_torque_y	     ground_torque_z	   l_ground_torque_x	   l_ground_torque_y	   l_ground_torque_z	
          1.59600000	        163.86063461	        738.47605303	        -23.34319795	          0.87908448	          0.00000000	          0.11880788	          0.00000000	          0.00000000	          0.00000000	          0.00000000	          0.00000000	          0.00000000	          0.00000000	          4.10230043	          0.00000000	          0.00000000	          0.00000000	          0.00000000	
          1.60000000	        171.83643169	        747.79882049	        -22.66711994	          0.87926074	          0.00000000	          0.11849363	          0.00000000	          0.00000000	          0.00000000	          0.00000000	          0.00000000	          0.00000000	          0.00000000	          4.19117568	          0.00000000	          0.00000000	          0.00000000	          0.00000000	
          1.60400000	        180.14167379	        754.91099097	        -22.39032860	          0.87939208	          0.00000000	          0.11818760	          0.00000000	          0.00000000	          0.00000000	          0.00000000	          0.00000000	          0.00000000	          0.00000000	          4.26976718	          0.00000000	          0.00000000	          0.00000000	          0.00000000	
          1.60800000	        188.62441167	        759.67261870	        -22.50381949	          0.87947792	          0.00000000	          0.11788430	          0.00000000	          0.00000000	          0.00000000	          0.00000000	          0.00000000	          0.00000000	          0.00000000	          4.34002332	          0.00000000	          0.00000000	          0.00000000	          0.00000000	
          1.61200000	        197.10858136	        761.95849962	        -22.90930729	          0.87950705	          0.00000000	          0.11759778	          0.00000000	          0.00000000	          0.00000000	          0.00000000	          0.00000000	          0.00000000	          0.00000000	          4.40080589	          0.00000000	          0.00000000	          0.00000000	          0.00000000	
          1.61600000	        205.40511551	        761.68479076	        -23.44485829	          0.87949348	          0.00000000	          0.11733649	          0.00000000	          0.00000000	          0.00000000	          0.00000000	          0.00000000	          0.00000000	          0.00000000	          4.44591838	          0.00000000	          0.00000000	          0.00000000	          0.00000000	
          1.62000000	        213.34627831	        758.83176697	        -23.93031894	          0.87945293	          0.00000000	          0.11709251	          0.00000000	          0.00000000	          0.00000000	          0.00000000	          0.00000000	          0.00000000	          0.00000000	          4.46461315	          0.00000000	          0.00000000	          0.00000000	          0.00000000	
          1.62400000	        220.81167489	        753.41065979	        -24.19909976	          0.87938391	          0.00000000	          0.11685123	          0.00000000	          0.00000000	          0.00000000	          0.00000000	          0.00000000	          0.00000000	          0.00000000	          4.44452608	          0.00000000	          0.00000000	          0.00000000	          0.00000000	
          1.62800000	        227.70569853	        745.38354411	        -24.10655601	          0.87927674	          0.00000000	          0.11660406	          0.00000000	          0.00000000	          0.00000000	          0.00000000	          0.00000000	          0.00000000	          0.00000000	          4.37560500	          0.00000000	          0.00000000	          0.00000000	          0.00000000	
          1.63200000	        233.90175993	        734.60828815	        -23.54274744	          0.87911007	          0.00000000	          0.11634641	          0.00000000	          0.00000000	          0.00000000	          0.00000000	          0.00000000	          0.00000000	          0.00000000	          4.25311219	          0.00000000	          0.00000000	          0.00000000	          0.00000000	
          1.63600000	        239.20186993	        720.83764164	        -22.44676003	          0.87887097	          0.00000000	          0.11607714	          0.00000000	          0.00000000	          0.00000000	          0.00000000	          0.00000000	          0.00000000	          0.00000000	          4.07833253	          0.00000000	          0.00000000	          0.00000000	          0.00000000	
          1.64000000	        243.34249953	        703.73827116	        -20.81587200	          0.87857144	          0.00000000	          0.11579319	          0.00000000	          0.00000000	          0.00000000	          0.00000000	          0.00000000	          0.00000000	          0.00000000	          3.85688401	          0.00000000	          0.00000000	          0.00000000	          0.00000000	
          1.64400000	        246.03701580	        682.89594242	        -18.71831558	          0.87822772	          0.00000000	          0.11548504	          0.00000000	          0.00000000	          0.00000000	          0.00000000	          0.00000000	          0.00000000	          0.00000000	          3.59586263	          0.00000000	          0.00000000	          0.00000000	          0.00000000	
          1.64800000	        247.01323725	        657.81114480	        -16.29213004	          0.87785174	          0.00000000	          0.11514897	          0.00000000	          0.00000000	          0.00000000	          0.00000000	          0.00000000	          0.00000000	          0.00000000	          3.30166101	          0.00000000	          0.00000000	          0.00000000	          0.00000000	
          1.65200000	        246.01184517	        627.93733755	        -13.71355257	          0.87744660	          0.00000000	          0.11480026	          0.00000000	          0.00000000	          0.00000000	          0.00000000	          0.00000000	          0.00000000	          0.00000000	          2.97979062	          0.00000000	          0.00000000	          0.00000000	          0.00000000	
